# xmcd
#
# Track frame offsets: 
#        150
#        17683
#        33489
#        49627
#        66819
#        78070
#        96613
#        108118
#        123834
#        137142
#        155387
#        177224
#        195978
#        213857
#        228479
#
# Disc length: 3224 seconds
#
# Revision: 3
# Processed by: cddbd v1.5.2PL0 Copyright (c) Steve Scherf et al.
# Submitted via: ExactAudioCopyFreeDBPlugin 1.0
#
DISCID=ba0c960f
DTITLE=Romy Haag - Balladen für Huren and Engel
DYEAR=1900
DGENRE=blues
TTITLE0=Nur eine Stunde
TTITLE1=Huren and Engel
TTITLE2=Help Me Make It Through the Night
TTITLE3=Sieh mich an
TTITLE4=Delta Dawn
TTITLE5=Mein Berlin
TTITLE6=Ich kann nicht treu sein
TTITLE7=Angelitos negros
TTITLE8=Karneval
TTITLE9=Pas de problèmes
TTITLE10=Grand Hotel Deutschland
TTITLE11=Blaue Gitarre
TTITLE12=Amsterdam
TTITLE13=Nur nicht aus Liebe weinen
TTITLE14=Cocaine
EXTD=
EXTT0=
EXTT1=
EXTT2=
EXTT3=
EXTT4=
EXTT5=
EXTT6=
EXTT7=
EXTT8=
EXTT9=
EXTT10=
EXTT11=
EXTT12=
EXTT13=
EXTT14=
PLAYORDER=
